<?xml version="1.0" standalone="no"?>
<!DOCTYPE svg PUBLIC "-//W3C//DTD SVG 20010904//EN"
 "http://www.w3.org/TR/2001/REC-SVG-20010904/DTD/svg10.dtd">
<svg version="1.0" xmlns="http://www.w3.org/2000/svg"
 width="674.000000pt" height="671.000000pt" viewBox="0 0 674.000000 671.000000"
 preserveAspectRatio="xMidYMid meet">

<g transform="translate(0.000000,671.000000) scale(0.100000,-0.100000)"
fill="#000000" stroke="none">
<path d="M470 5845 l0 -415 415 0 415 0 0 415 0 415 -415 0 -415 0 0 -415z
m710 0 l0 -295 -295 0 -295 0 0 295 0 295 295 0 295 0 0 -295z"/>
<path d="M707 6023 c-4 -3 -7 -84 -7 -180 l0 -173 180 0 180 0 0 180 0 180
-173 0 c-96 0 -177 -3 -180 -7z"/>
<path d="M1420 6145 l0 -115 120 0 120 0 0 55 0 55 60 0 60 0 0 -115 0 -114
58 -3 57 -3 3 -57 3 -58 -180 0 -180 0 -3 58 -3 57 -55 0 -55 0 -3 -57 -3 -58
61 0 60 0 0 -120 0 -120 -60 0 -60 0 0 -120 0 -120 -180 0 -180 0 0 -60 0 -60
-60 0 -60 0 0 60 0 61 -117 -3 -118 -3 -3 -117 -3 -118 -54 0 -54 0 -3 -117
-3 -118 -57 -3 -58 -3 0 -234 0 -235 60 0 60 0 0 120 0 120 115 0 115 0 0 55
0 54 -57 3 -58 3 -3 178 -2 177 59 0 60 0 3 -117 3 -118 58 -3 57 -3 0 -174 0
-174 -117 -3 -118 -3 -3 -57 -3 -58 61 0 60 0 0 -120 0 -120 60 0 60 0 0 180
0 180 180 0 180 0 0 -60 0 -59 -117 -3 -118 -3 -3 -117 -3 -118 61 0 60 0 0
-60 0 -60 -237 2 -238 3 -3 118 -3 117 -54 0 -54 0 -3 -57 -3 -58 -57 -3 -58
-3 0 -59 0 -59 57 -3 58 -3 3 -57 3 -58 -61 0 -60 0 0 -60 0 -61 58 3 57 3 3
58 3 57 234 0 235 0 0 -60 0 -60 -180 0 -180 0 0 -60 0 -60 -115 0 -115 0 0
-60 0 -60 60 0 61 0 -3 -57 -3 -58 -57 -3 -58 -3 0 -54 0 -54 58 -3 57 -3 3
-57 3 -58 -61 0 -60 0 0 -420 0 -420 60 0 60 0 0 -60 0 -60 55 0 c37 0 55 -4
56 -12 0 -7 1 -33 2 -58 l2 -45 58 -3 57 -3 0 61 0 60 60 0 60 0 0 60 0 60
-60 0 -60 0 0 -60 0 -61 -57 3 -58 3 -3 298 -2 297 59 0 60 0 3 -57 3 -58 58
-3 57 -3 0 -59 0 -59 -57 -3 -58 -3 0 -55 0 -55 58 -3 57 -3 0 61 0 60 60 0
60 0 0 60 0 60 60 0 60 0 0 -60 0 -60 180 0 180 0 0 60 0 60 60 0 60 0 0 -60
0 -61 58 3 57 3 3 58 3 57 -61 0 -60 0 0 180 0 180 60 0 60 0 0 60 0 60 60 0
60 0 0 60 0 60 115 0 115 0 0 -60 0 -60 -54 0 c-67 0 -62 21 -58 -267 l3 -213
54 0 54 0 3 -57 3 -58 58 -3 57 -3 0 -59 0 -60 -175 0 -174 0 -3 -57 -3 -58
-57 -3 -58 -3 0 -60 0 -60 118 3 117 3 3 58 3 57 114 0 115 0 0 -120 0 -120
-114 0 -115 0 -3 -105 c-2 -58 -1 -110 0 -115 2 -6 28 -10 58 -10 l54 0 0 -60
0 -60 -55 0 -55 0 0 60 0 60 -60 0 -60 0 0 -60 0 -60 60 0 60 0 0 -60 0 -60
115 0 115 0 0 -60 0 -59 -57 -3 -58 -3 -3 -118 -3 -117 -53 0 c-30 0 -56 -4
-58 -10 -1 -5 -1 -32 0 -60 l4 -50 54 0 54 0 0 60 0 60 120 0 120 0 0 60 0 60
60 0 60 0 0 -60 0 -60 60 0 60 0 0 -120 0 -120 -60 0 -60 0 0 60 0 60 -60 0
-61 0 3 -58 3 -57 58 -3 57 -3 0 -59 0 -60 -120 0 -120 0 0 60 0 60 -60 0 -60
0 0 -60 0 -60 -115 0 -115 0 0 -60 0 -60 -60 0 -59 0 -3 -57 -3 -58 -117 -3
-118 -3 0 60 0 60 58 3 57 3 3 57 3 57 57 3 57 3 3 57 3 57 57 3 57 3 3 117 3
118 60 0 60 0 -3 58 -3 57 -57 3 -57 3 -3 117 -3 117 -57 3 -58 3 -2 177 -3
177 -55 1 -55 1 -3 236 -2 237 -120 0 -120 0 0 -60 0 -60 -60 0 -60 0 0 60 0
60 -60 0 -60 0 0 -60 0 -60 -60 0 -60 0 0 -235 0 -234 -57 -3 -58 -3 -3 -57
-3 -58 61 0 60 0 0 -60 0 -60 120 0 120 0 0 -60 0 -60 -60 0 -60 0 0 -60 0
-60 60 0 60 0 0 60 0 60 60 0 60 0 0 -240 0 -240 60 0 61 0 -3 -57 -3 -58 -58
-3 -58 -3 3 -117 3 -117 58 -3 57 -3 0 -54 0 -54 -57 -3 -58 -3 -3 -57 -3 -58
61 0 60 0 0 60 0 61 118 -3 117 -3 3 -57 3 -58 59 0 60 0 0 175 0 175 115 0
115 0 0 60 0 60 60 0 60 0 0 -120 0 -120 -60 0 -60 0 0 -115 0 -115 60 0 60 0
0 115 0 115 60 0 60 0 0 60 0 60 60 0 59 0 3 -57 3 -58 58 -3 57 -3 0 -54 0
-55 60 0 60 0 0 -60 0 -60 120 0 120 0 0 60 0 60 60 0 60 0 0 55 0 55 -120 0
-120 0 0 -55 0 -55 -60 0 -60 0 0 115 0 115 355 0 355 0 0 -175 0 -175 60 0
60 0 0 115 0 115 60 0 60 0 0 60 0 60 120 0 121 0 -3 -57 -3 -58 -57 -3 -58
-3 0 -114 0 -115 60 0 59 0 3 58 3 57 115 0 115 0 3 -57 3 -58 354 0 355 0 0
60 0 60 60 0 60 0 0 -60 0 -60 60 0 60 0 0 60 0 60 -60 0 -60 0 0 55 0 54 -57
3 -58 3 -3 58 -3 58 -57 -3 -57 -3 0 -55 0 -55 58 -3 57 -3 0 -54 0 -55 -175
0 -175 0 0 115 0 115 -120 0 -120 0 0 -60 0 -61 -57 3 -58 3 -3 178 -2 177
-120 0 -120 0 0 60 0 60 -60 0 -60 0 0 60 0 60 120 0 120 0 0 -60 0 -60 60 0
60 0 0 60 0 60 -60 0 -60 0 0 60 0 60 -120 0 -120 0 0 180 0 180 60 0 60 0 0
-120 0 -120 60 0 60 0 0 60 0 60 60 0 60 0 0 -60 0 -60 60 0 60 0 0 -60 0 -60
120 0 120 0 0 -120 0 -120 -60 0 -60 0 0 -120 0 -121 118 3 117 3 3 58 3 57
-61 0 -60 0 0 60 0 59 58 3 57 3 3 58 3 57 54 0 55 0 0 164 c0 90 3 171 6 180
5 13 25 16 120 16 l114 0 0 -60 0 -60 120 0 120 0 0 -60 0 -60 -60 0 -60 0 0
-60 0 -60 -60 0 -60 0 0 60 0 61 -57 -3 -58 -3 -3 -118 -3 -117 -54 0 c-49 0
-55 -2 -61 -24 -3 -13 -4 -38 -2 -57 3 -34 3 -34 60 -37 l57 -3 3 -57 3 -57
58 -3 57 -3 0 61 0 60 60 0 60 0 0 120 0 120 60 0 60 0 2 -237 3 -238 58 -3
58 -3 -3 -57 -3 -57 -57 -3 -58 -3 0 -54 0 -55 120 0 120 0 0 115 0 115 60 0
59 0 3 -57 3 -58 115 0 115 0 3 58 3 57 -121 0 -120 0 0 60 0 60 178 2 177 3
3 118 3 117 -60 0 -61 0 -2 178 -3 177 -57 3 -58 3 0 119 0 120 60 0 60 0 0
-60 0 -60 175 0 175 0 0 -60 0 -60 -55 0 -55 0 0 -60 0 -60 55 0 55 0 0 60 0
60 60 0 60 0 0 60 0 60 -60 0 -60 0 0 60 0 60 60 0 60 0 0 119 0 118 -27 1
c-16 0 -67 0 -115 1 l-88 1 0 55 0 55 55 0 55 0 0 60 0 60 -175 0 -175 0 0
-175 0 -175 -237 -2 -238 -3 -3 -57 -3 -58 -59 0 -60 0 0 114 c0 127 1 126
-82 126 l-38 0 0 115 0 114 -57 3 -58 3 -3 57 -3 58 -118 0 -118 0 1 -58 1
-57 58 -3 57 -3 0 -59 0 -60 -60 0 -60 0 0 -53 c0 -30 -2 -56 -4 -58 -2 -2
-27 -2 -55 -1 l-51 4 0 54 0 54 -60 0 -60 0 0 120 0 119 58 3 57 3 3 58 3 57
54 0 55 0 0 60 0 60 -55 0 -55 0 0 -60 0 -60 -120 0 -120 0 0 120 0 119 118 3
117 3 0 175 0 175 -57 3 -57 3 -3 57 -3 57 -57 3 -58 3 0 59 0 60 60 0 60 0 0
55 0 55 118 0 117 0 -2 -115 -2 -115 59 0 60 0 0 175 0 174 -57 3 -58 3 -3
155 c-4 204 -5 200 63 200 l54 0 3 -57 3 -58 58 -3 57 -3 0 61 0 60 60 0 59 0
3 -57 3 -58 118 -3 117 -3 0 -59 0 -60 -180 0 -181 0 3 -117 3 -118 58 -3 57
-3 0 -54 0 -54 -57 -3 -58 -3 -3 -117 -3 -118 61 0 60 0 0 -60 0 -60 -120 0
-120 0 0 60 0 61 -57 -3 -58 -3 0 -55 0 -55 58 -3 57 -3 0 -59 0 -59 -57 -3
-58 -3 0 -55 0 -55 57 -3 57 -3 3 -57 3 -57 57 -3 57 -3 3 -57 3 -57 178 -3
177 -2 0 -60 0 -60 60 0 60 0 0 120 0 120 60 0 60 0 0 180 0 181 58 -3 57 -3
3 -57 3 -58 59 0 60 0 0 240 0 240 60 0 60 0 0 -120 0 -120 60 0 60 0 0 -60 0
-60 -60 0 -60 0 0 -120 0 -120 60 0 60 0 0 -120 0 -120 55 0 54 0 3 58 3 57
58 3 57 3 0 59 0 60 -115 0 -115 0 0 120 0 120 55 0 55 0 0 60 0 60 -55 0 -55
0 0 120 0 120 55 0 55 0 0 -60 0 -60 60 0 60 0 0 115 0 115 -115 0 -115 0 0
180 0 180 115 0 115 0 0 240 0 240 -60 0 -60 0 0 60 0 60 -115 0 -115 0 0 -60
0 -60 -60 0 -59 0 -3 58 -3 57 -57 3 -58 3 0 119 0 120 60 0 60 0 0 -60 0 -60
60 0 61 0 -3 58 -3 57 -57 3 -58 3 0 54 0 54 -57 3 -58 3 -3 58 -3 57 121 0
120 0 0 -60 0 -61 58 3 57 3 3 118 3 117 54 0 54 0 3 -57 3 -58 58 -3 57 -3 0
61 0 60 -60 0 -60 0 0 60 0 60 60 0 60 0 0 120 0 120 -115 0 -115 0 0 -60 0
-60 55 0 55 0 0 -60 0 -60 -55 0 -55 0 0 -60 0 -60 -60 0 -60 0 0 180 0 180
-60 0 -59 0 -3 -117 -3 -118 -57 -3 -58 -3 0 61 0 60 -60 0 -60 0 0 60 0 60
-60 0 -60 0 0 -60 0 -60 -60 0 -60 0 0 60 0 60 -60 0 -60 0 0 -60 0 -60 60 0
60 0 0 -60 0 -60 -60 0 -60 0 0 -60 0 -60 -60 0 -60 0 0 60 0 60 -60 0 -60 0
0 60 0 60 -175 0 -174 0 -3 58 -3 57 -57 3 -58 3 0 -61 0 -60 -60 0 -59 0 -3
-57 -3 -58 -57 -3 -58 -3 0 -59 0 -60 -60 0 -61 0 3 -117 3 -118 45 -2 c25 -1
51 -2 58 -2 8 -1 12 -19 12 -56 l0 -55 -237 -2 -238 -3 -3 -57 -3 -58 -59 0
-60 0 0 115 c0 112 1 115 23 116 12 0 38 1 57 2 l35 2 3 58 3 57 59 0 59 0 3
-57 3 -58 55 0 55 0 3 178 2 177 60 0 60 0 0 60 0 60 60 0 60 0 0 60 0 60 60
0 60 0 0 180 0 180 60 0 60 0 0 60 0 60 235 0 236 0 -3 118 -3 117 -117 3
-116 3 1 52 2 52 118 3 117 3 0 -56 0 -55 60 0 60 0 0 -120 0 -120 60 0 59 0
3 58 3 57 58 3 57 3 0 174 0 175 -60 0 -60 0 0 -60 0 -60 -120 0 -120 0 0 60
0 60 -175 0 -175 0 0 -115 0 -115 -60 0 -60 0 0 115 0 115 -60 0 -59 0 -3 -57
-3 -58 -57 -3 -58 -3 0 61 0 60 -120 0 -121 0 3 -57 3 -58 118 -3 117 -3 0
-114 0 -115 -60 0 -59 0 -3 58 -3 57 -115 0 -115 0 -3 -57 -3 -58 121 0 120 0
0 -60 0 -60 60 0 60 0 0 60 0 60 60 0 60 0 0 -120 0 -120 -180 0 -180 0 0
-120 0 -120 -60 0 -60 0 0 120 0 120 -60 0 -60 0 0 60 0 60 -60 0 -61 0 3 58
3 57 58 3 58 3 -3 57 -3 57 -57 3 -58 3 0 54 0 54 -117 3 -118 3 -3 58 -3 57
-54 0 -55 0 0 -115 0 -115 -180 0 -180 0 0 55 0 55 -60 0 -60 0 0 -55 0 -55
-120 0 -120 0 0 55 0 54 -57 3 -58 3 -3 58 -3 57 -120 0 -120 0 3 -57 3 -58
58 -3 57 -3 0 -54 0 -54 -117 -3 -118 -3 -3 -57 -3 -58 -54 0 -55 0 -1 98 c-1
53 -1 105 0 115 2 14 -7 17 -58 17 l-61 0 0 60 0 60 -240 0 -240 0 0 -115z
m2020 -175 l0 -60 -55 0 -55 0 0 -60 0 -60 -120 0 -120 0 0 -60 0 -60 -60 0
-60 0 0 -60 0 -59 58 -3 57 -3 3 -57 3 -58 -61 0 -60 0 0 60 0 60 -60 0 -60 0
0 -180 0 -180 120 0 121 0 -3 -117 -3 -118 -57 -3 -58 -3 0 -59 0 -60 60 0 61
0 -3 -57 -3 -58 -57 -3 -58 -3 0 -54 0 -55 120 0 120 0 0 55 0 55 115 0 115 0
0 -55 0 -55 60 0 60 0 0 -180 0 -180 180 0 180 0 0 -60 0 -60 60 0 60 0 0 -60
0 -60 60 0 60 0 0 -120 0 -120 60 0 60 0 0 120 0 120 60 0 60 0 0 -120 0 -121
58 3 57 3 3 58 3 58 57 -3 57 -3 0 -115 0 -115 -57 -3 -58 -3 0 -119 0 -120
-60 0 -60 0 0 -55 0 -54 -57 -3 -58 -3 -3 -57 -3 -58 61 0 60 0 0 -60 0 -60
-60 0 -60 0 0 -120 0 -120 60 0 60 0 0 60 0 61 58 -3 57 -3 3 -57 3 -58 -61 0
-60 0 0 -60 0 -60 -60 0 -60 0 0 -60 0 -60 -60 0 -60 0 0 -120 0 -120 -60 0
-60 0 0 -60 0 -60 120 0 120 0 0 120 0 120 60 0 61 0 -3 -118 -3 -117 -57 -3
-58 -3 0 -59 0 -60 120 0 120 0 0 -115 0 -114 58 -3 57 -3 0 -235 0 -235 -57
-3 -57 -3 -3 118 -3 118 -117 3 -117 3 -3 57 -3 57 -177 3 -178 2 0 61 0 60
-57 -3 -58 -3 -3 -57 -3 -58 -59 0 -60 0 0 -60 0 -60 -175 0 -174 0 -3 58 -3
57 -117 3 -118 3 0 -60 0 -60 58 -3 57 -3 3 -57 3 -58 -61 0 -60 0 0 60 0 60
-60 0 -60 0 0 -60 0 -60 -60 0 -60 0 0 -60 0 -60 60 0 60 0 0 -60 0 -60 -60 0
-60 0 0 -60 0 -60 120 0 121 0 -3 -57 -3 -58 -57 -3 -57 -3 -3 -57 -3 -57 -57
-3 -58 -3 0 61 0 60 -60 0 -60 0 0 120 0 120 -60 0 -60 0 0 120 0 120 -120 0
-120 0 0 60 0 60 -60 0 -61 0 3 58 3 57 57 3 57 3 3 57 3 57 58 3 57 3 0 -61
0 -60 -60 0 -60 0 0 -60 0 -60 120 0 120 0 0 -60 0 -60 60 0 60 0 0 120 0 120
-60 0 -60 0 0 175 0 174 -117 3 -118 3 -3 178 -2 177 60 0 60 0 0 60 0 60 -60
0 -60 0 0 120 0 120 -120 0 -120 0 0 180 0 180 60 0 60 0 0 60 0 60 -60 0 -60
0 0 55 0 55 -175 0 -175 0 0 -55 0 -55 -60 0 -60 0 0 -60 0 -60 -60 0 -60 0 0
115 0 115 120 0 120 0 0 60 0 60 175 0 175 0 0 60 0 60 120 0 119 0 3 -57 3
-58 58 -3 57 -3 0 120 0 120 -57 3 -58 3 -3 178 -2 177 60 0 60 0 0 60 0 60
-60 0 -61 0 3 58 3 57 57 3 57 3 3 57 3 57 118 3 117 3 0 -61 0 -60 120 0 120
0 0 120 0 120 -60 0 -60 0 0 54 0 54 -56 4 c-31 1 -58 1 -60 -1 -2 -2 -4 -28
-4 -58 l0 -53 -60 0 -60 0 0 55 0 55 -60 0 -60 0 0 -55 0 -55 -60 0 -60 0 0
-60 0 -60 -60 0 -60 0 0 -60 0 -60 -60 0 -61 0 3 58 3 57 57 3 57 3 3 57 3 57
58 3 57 3 0 54 0 54 -117 3 -118 3 -3 118 -3 117 -54 0 -55 0 0 60 0 60 -60 0
-60 0 0 -120 0 -120 60 0 60 0 0 -60 0 -60 55 0 55 0 0 -55 0 -55 -55 0 -55 0
0 -120 0 -120 -60 0 -60 0 0 -60 0 -59 58 -3 57 -3 3 -117 3 -118 54 0 54 0 3
58 3 57 58 3 57 3 0 -181 0 -180 -115 0 -114 0 -3 -57 -3 -58 -177 -3 -178 -2
0 120 0 120 -60 0 -59 0 -3 -117 -3 -118 -235 0 -235 0 -3 58 -3 57 121 0 120
0 0 60 0 60 -60 0 -60 0 0 60 0 60 60 0 60 0 0 60 0 60 -60 0 -60 0 0 60 0 60
60 0 60 0 0 60 0 60 60 0 60 0 0 -60 0 -60 -60 0 -60 0 0 -60 0 -60 60 0 60 0
0 -120 0 -120 60 0 60 0 0 180 0 180 60 0 61 0 -3 58 -3 57 -57 3 -57 3 -3
117 -3 117 -57 3 -58 3 0 114 0 115 120 0 120 0 0 60 0 60 -180 0 -179 0 -3
-57 -3 -58 -58 -3 -58 -3 3 -57 3 -57 58 -3 57 -3 0 -54 0 -55 -60 0 -60 0 0
55 0 55 -42 1 c-24 1 -50 2 -58 3 -11 1 -16 16 -18 59 l-3 57 61 0 60 0 0 60
0 59 -118 3 -117 3 -3 58 -3 57 -59 0 -60 0 0 60 0 60 60 0 60 0 0 -60 0 -60
120 0 120 0 0 60 0 60 120 0 120 0 0 60 0 60 60 0 60 0 0 -60 0 -60 60 0 60 0
0 -60 0 -60 120 0 120 0 0 60 0 60 60 0 61 0 -3 58 -3 57 -57 3 -58 3 0 59 0
60 -60 0 -59 0 -3 58 -3 57 -57 3 -58 3 0 -61 0 -60 -60 0 -60 0 0 60 0 60 60
0 60 0 0 60 0 60 120 0 120 0 0 60 0 60 115 0 114 0 3 58 3 57 295 0 295 0 3
-57 3 -58 59 0 60 0 0 60 0 60 240 0 240 0 0 60 0 60 55 0 55 0 0 -60z m1080
0 l0 -60 -60 0 -60 0 0 60 0 60 60 0 60 0 0 -60z m-960 -120 l0 -60 -60 0 -60
0 0 53 c0 30 3 57 7 60 3 4 30 7 60 7 l53 0 0 -60z m0 -360 l0 -180 -175 0
-175 0 0 180 0 180 175 0 175 0 0 -180z m240 60 l0 -120 -60 0 -60 0 0 113 c0
63 3 117 7 120 3 4 30 7 60 7 l53 0 0 -120z m480 -120 l0 -120 -60 0 -60 0 0
120 0 120 60 0 60 0 0 -120z m-480 -180 l0 -60 60 0 60 0 0 60 0 60 60 0 60 0
0 -60 0 -60 -60 0 -60 0 0 -60 0 -61 -57 3 -58 3 -3 58 -3 57 -59 0 -60 0 0
-60 0 -61 -57 3 -58 3 -3 58 -3 57 61 0 60 0 0 60 0 60 60 0 60 0 0 -60z m838
-117 l-3 -58 -57 -3 -58 -3 0 61 0 60 60 0 61 0 -3 -57z m-1198 -123 l0 -60
-55 0 -54 0 -3 -57 -3 -58 -57 -3 -58 -3 0 61 0 60 60 0 60 0 0 60 0 60 55 0
55 0 0 -60z m1552 3 l3 -58 58 -3 57 -3 0 -60 0 -60 -117 3 -118 3 -3 57 -3
57 -57 3 -57 3 0 58 0 57 117 0 117 0 3 -57z m596 0 l-3 -58 -58 -3 -58 -3 3
-57 3 -57 58 -3 57 -3 0 -174 0 -175 -60 0 -60 0 0 -60 0 -60 -60 0 -60 0 0
-60 0 -60 120 0 120 0 0 -120 0 -120 -60 0 -60 0 0 -120 0 -120 -60 0 -60 0 0
60 0 60 -60 0 -60 0 0 120 0 120 60 0 60 0 0 60 0 60 -120 0 -120 0 0 -120 0
-120 -177 2 -178 3 0 55 0 55 -57 3 -57 3 -3 -58 -3 -58 -57 -3 -58 -3 0 121
0 120 -120 0 -119 0 -3 58 -3 57 -117 3 -118 3 0 59 0 60 120 0 120 0 0 60 0
60 60 0 60 0 0 55 0 55 -60 0 -60 0 0 120 0 120 60 0 60 0 0 -120 0 -121 58 3
57 3 3 58 3 57 59 0 60 0 0 -60 0 -60 54 0 54 0 4 -45 c2 -24 2 -49 0 -55 -2
-6 -49 -10 -118 -10 l-114 0 0 -180 0 -180 60 0 60 0 0 120 0 120 55 0 c60 0
58 -3 55 78 l-2 42 61 0 61 0 0 -60 0 -60 300 0 301 0 -3 58 -3 57 -118 3
-118 3 3 57 3 57 37 -3 c77 -7 78 -5 78 124 l0 114 60 0 60 0 0 60 0 60 60 0
61 0 -3 -57z m-1788 -123 l0 -61 -57 3 -58 3 -3 58 -3 57 61 0 60 0 0 -60z
m-240 -119 l0 -58 -57 1 -58 1 -3 58 -3 57 61 0 60 0 0 -59z m360 -351 l0 -60
-60 0 -60 0 0 60 0 60 60 0 60 0 0 -60z m1910 -240 l0 -60 120 0 120 0 0 60 0
60 55 0 55 0 0 -60 0 -60 -55 0 -54 0 -3 -117 -3 -118 -57 -3 -57 -3 -3 -57
-3 -57 -117 -3 -117 -3 -3 -57 -3 -57 -57 -3 -58 -3 0 61 0 60 60 0 60 0 0
240 0 240 60 0 60 0 0 -60z m-4890 -660 l0 -120 -60 0 -60 0 0 -55 0 -55 60 0
60 0 0 -120 0 -119 -57 -3 -58 -3 -3 -57 -3 -58 180 0 180 0 3 58 3 57 118 3
117 3 0 -61 0 -60 -120 0 -120 0 0 -60 0 -60 180 0 180 0 0 -60 0 -60 -180 0
-180 0 0 60 0 60 -180 0 -180 0 0 60 0 60 -60 0 -60 0 0 -60 0 -60 -55 0 -55
0 0 60 0 60 55 0 55 0 0 60 0 60 -55 0 -55 0 0 60 0 60 115 0 115 0 0 60 0 60
-60 0 -60 0 0 55 0 55 60 0 60 0 0 120 0 120 60 0 60 0 0 -120z m5008 63 l-3
-58 -57 -3 -58 -3 0 61 0 60 60 0 61 0 -3 -57z m-4528 -238 l0 -175 -180 0
-180 0 0 175 0 175 180 0 180 0 0 -175z m3808 118 l-3 -58 -57 -3 -58 -3 0 61
0 60 60 0 61 0 -3 -57z m482 -118 l0 -175 -180 0 -180 0 0 175 0 175 180 0
180 0 0 -175z m360 0 l0 -55 -60 0 -60 0 0 55 0 55 60 0 60 0 0 -55z m-842
-117 l3 -58 -61 0 -60 0 0 60 0 61 58 -3 57 -3 3 -57z m360 -240 l3 -58 -61 0
-60 0 0 -120 0 -120 -60 0 -60 0 0 60 0 60 -120 0 -120 0 0 -60 0 -60 60 0 60
0 0 -60 0 -60 -60 0 -60 0 0 60 0 60 -120 0 -120 0 0 60 0 60 120 0 120 0 0
60 0 60 180 0 180 0 0 60 0 61 58 -3 57 -3 3 -57z m-4288 -718 l0 -60 60 0 60
0 0 60 0 60 60 0 61 0 -3 -57 -3 -58 -57 -3 -57 -3 -3 -57 -3 -57 -58 -3 -58
-3 3 -57 3 -57 55 0 55 -1 3 -57 3 -57 -61 0 -60 0 0 -60 0 -60 120 0 119 0 3
118 3 117 58 2 57 3 0 -180 0 -180 -60 0 -60 0 0 -60 0 -59 58 -3 57 -3 3 -57
3 -58 -61 0 -60 0 0 60 0 60 -60 0 -60 0 0 60 0 60 -60 0 -60 0 0 60 0 60 -60
0 -61 0 3 58 3 57 58 3 57 3 0 59 c0 33 -3 59 -7 59 -5 -1 -32 -1 -60 0 l-53
1 0 55 0 55 60 0 60 0 0 60 0 59 -57 3 -58 3 -3 58 -3 57 61 0 60 0 0 -60z
m3690 -352 l0 -58 -60 0 -60 0 0 53 c0 30 3 57 7 61 4 4 31 6 60 4 l53 -3 0
-57z m1078 0 l3 -58 54 0 55 0 0 -60 0 -60 -175 0 -175 0 0 60 0 60 60 0 60 0
0 59 0 58 58 -1 57 -1 3 -57z m-958 -238 l0 -60 -60 0 -60 0 0 53 c0 30 3 57
7 60 3 4 30 7 60 7 l53 0 0 -60z m478 -2 l3 -58 -61 0 -60 0 0 -60 0 -60 -60
0 -60 0 0 120 0 121 118 -3 117 -3 3 -57z m-2028 -478 l0 -180 -175 0 -175 0
0 180 0 180 175 0 175 0 0 -180z m2148 3 l-3 -178 -177 -3 -178 -2 0 180 0
180 180 0 180 0 -2 -177z m-3928 -123 l0 -60 -120 0 -120 0 0 60 0 60 120 0
120 0 0 -60z m2020 0 l0 -61 -57 3 -58 3 -3 58 -3 57 61 0 60 0 0 -60z m-1070
-240 l0 -61 -57 3 -58 3 -3 58 -3 57 61 0 60 0 0 -60z m950 0 l0 -60 -120 0
-120 0 0 60 0 60 120 0 120 0 0 -60z m358 3 l-3 -58 -57 -3 -58 -3 0 61 0 60
60 0 61 0 -3 -57z m362 -238 l0 -55 -60 0 -60 0 0 55 0 55 60 0 60 0 0 -55z"/>
<path d="M2130 5730 l0 -60 -55 0 -55 0 0 -60 0 -60 -60 0 -60 0 0 -60 0 -61
58 3 57 3 3 58 3 57 54 0 54 0 3 -117 3 -118 57 -3 58 -3 2 178 3 178 58 3 57
3 0 59 0 60 -120 0 -120 0 0 -60z"/>
<path d="M2497 5783 c-4 -3 -7 -30 -7 -60 l0 -53 120 0 120 0 0 60 0 60 -113
0 c-63 0 -117 -3 -120 -7z"/>
<path d="M2850 5730 l0 -60 60 0 61 0 -3 58 -3 57 -57 3 -58 3 0 -61z"/>
<path d="M2370 5490 l0 -60 60 0 60 0 0 -120 0 -120 -120 0 -121 0 3 -57 3
-58 58 -3 57 -3 0 -59 0 -60 -60 0 -61 0 3 -57 3 -58 175 0 175 0 3 58 3 57
59 0 59 0 3 -57 3 -58 55 0 55 0 3 58 3 57 59 0 60 0 0 60 0 60 -60 0 -60 0 0
60 0 60 -120 0 -120 0 0 60 0 60 60 0 60 0 0 120 0 120 -60 0 -60 0 0 -60 0
-60 -60 0 -60 0 0 60 0 60 -60 0 -60 0 0 -60z"/>
<path d="M2020 5130 l0 -60 55 0 55 0 0 60 0 60 -55 0 -55 0 0 -60z"/>
<path d="M1180 5010 l0 -60 60 0 60 0 0 60 0 60 -60 0 -60 0 0 -60z"/>
<path d="M1660 4715 l0 -115 60 0 60 0 0 -120 0 -120 60 0 61 0 -3 118 -3 117
-57 3 -58 3 0 54 c0 57 3 61 54 55 10 -1 29 1 42 4 22 6 24 12 24 61 l0 55
-120 0 -120 0 0 -115z"/>
<path d="M3090 4420 l0 -60 60 0 61 0 -3 58 -3 57 -57 3 -58 3 0 -61z"/>
<path d="M2490 4300 l0 -60 60 0 60 0 0 60 0 60 -60 0 -60 0 0 -60z"/>
<path d="M1780 4180 l0 -60 -60 0 -60 0 0 -120 0 -120 60 0 60 0 0 -60 0 -61
58 3 57 3 0 115 0 115 -57 3 -58 3 0 59 0 60 60 0 60 0 0 60 0 60 -60 0 -60 0
0 -60z"/>
<path d="M2970 4180 l0 -60 -180 0 -180 0 0 -60 0 -60 60 0 60 0 0 -60 0 -60
-120 0 -120 0 0 -60 0 -60 120 0 120 0 0 -60 0 -60 -60 0 -60 0 0 -120 0 -120
-60 0 -60 0 0 -55 0 -54 -57 -3 -58 -3 -3 -57 -3 -58 -59 0 -60 0 0 -60 0 -60
60 0 60 0 0 60 0 60 60 0 60 0 0 -60 0 -60 60 0 60 0 0 60 0 60 -60 0 -60 0 0
60 0 60 60 0 60 0 0 55 0 55 60 0 60 0 0 -115 0 -114 58 -3 57 -3 3 -57 3 -58
-61 0 -60 0 0 -60 0 -60 -60 0 -60 0 0 -60 0 -60 -60 0 -60 0 0 -60 0 -60 60
0 60 0 0 -60 0 -60 120 0 120 0 0 -60 0 -60 -180 0 -181 0 3 -117 3 -118 58
-3 57 -3 0 -59 0 -60 180 0 180 0 0 -55 0 -55 -105 -1 c-58 -1 -111 -2 -117
-3 -10 -1 -14 -34 -16 -118 l-3 -118 121 0 120 0 0 115 c0 85 3 115 13 116 23
3 52 6 80 7 26 2 27 4 27 57 l0 55 -60 0 -60 0 0 60 0 60 180 0 180 0 0 -60 0
-60 55 0 55 0 0 -55 c0 -61 -7 -56 88 -59 l32 0 0 -58 0 -57 -57 -3 -58 -3 -3
-57 -3 -58 120 0 120 0 3 118 3 117 55 1 55 1 3 56 3 56 -58 3 -58 3 -3 118
-3 117 -59 0 -60 0 0 60 0 60 120 0 119 0 3 -57 3 -58 118 -3 117 -3 0 241 0
240 60 0 60 0 0 120 0 120 60 0 60 0 0 60 0 60 -60 0 -60 0 0 -60 0 -60 -240
0 -241 0 3 58 3 57 58 3 57 3 0 59 0 60 -60 0 -60 0 0 115 0 115 60 0 59 0 3
-57 3 -58 58 -3 57 -3 0 -54 0 -55 120 0 120 0 0 55 0 54 -57 3 -58 3 -3 58
-3 57 121 0 120 0 0 -60 0 -60 60 0 60 0 0 60 0 60 -60 0 -60 0 0 60 0 60 -60
0 -60 0 0 60 0 60 -60 0 -60 0 0 60 0 60 -60 0 -60 0 0 120 0 120 -60 0 -60 0
0 -120 0 -121 -117 3 -118 3 -3 58 -3 57 61 0 60 0 0 60 0 61 -57 -3 -58 -3
-3 -57 -3 -58 -59 0 -60 0 0 120 0 120 -235 0 -235 0 0 -60z m358 -122 l3 -58
54 0 55 0 0 -120 0 -120 -55 0 -54 0 -3 -57 -3 -58 -117 -3 -118 -3 0 121 0
120 -60 0 -60 0 0 -180 0 -180 60 0 61 0 -3 -57 -3 -58 -57 -3 -58 -3 0 -54 0
-55 -60 0 -60 0 0 295 0 295 60 0 60 0 0 120 0 120 178 -2 177 -3 3 -57z m592
-418 l0 -120 -60 0 -60 0 0 120 0 120 60 0 60 0 0 -120z m-360 -295 l0 -175
-175 0 -175 0 0 175 0 175 175 0 175 0 0 -175z m120 -355 l0 -60 180 0 180 0
0 -60 0 -60 -180 0 -180 0 0 -60 0 -60 120 0 120 0 0 -120 0 -120 -60 0 -60 0
0 60 0 60 -120 0 -120 0 0 -60 0 -61 -57 3 -58 3 -3 58 -3 57 -54 0 -54 0 -3
-117 -3 -118 -57 -3 -58 -3 0 61 0 60 -60 0 -59 0 -3 -57 -3 -58 -57 -3 -58
-3 0 -59 0 -60 -60 0 -60 0 0 60 0 60 60 0 60 0 0 120 0 120 -60 0 -60 0 0
120 0 120 60 0 60 0 0 60 0 61 58 -3 57 -3 3 -178 2 -178 58 3 57 3 3 58 3 57
114 0 115 0 0 -60 0 -60 60 0 59 0 3 118 3 117 58 3 57 3 0 59 0 60 -120 0
-120 0 0 -60 0 -60 -55 0 -55 0 0 60 0 60 55 0 55 0 0 53 c0 30 3 57 7 60 3 4
57 7 120 7 l113 0 0 -60z m-950 -240 l0 -60 -60 0 -60 0 0 60 0 60 60 0 60 0
0 -60z m830 -480 l0 -61 -57 3 -58 3 -3 58 -3 57 61 0 60 0 0 -60z"/>
<path d="M3210 3880 l0 -120 60 0 60 0 0 120 0 120 -60 0 -60 0 0 -120z"/>
<path d="M3330 3345 l0 -55 55 0 55 0 0 55 0 55 -55 0 -55 0 0 -55z"/>
<path d="M2130 3460 l0 -60 60 0 60 0 0 60 0 60 -60 0 -60 0 0 -60z"/>
<path d="M3920 1975 l0 -115 60 0 60 0 0 115 0 115 -60 0 -60 0 0 -115z"/>
<path d="M4160 1975 l0 -115 60 0 60 0 0 115 0 115 -60 0 -60 0 0 -115z"/>
<path d="M3210 1919 l0 -59 60 0 61 0 -3 58 -3 57 -57 2 -58 2 0 -60z"/>
<path d="M3330 5490 l0 -60 55 0 55 0 0 60 0 60 -55 0 -55 0 0 -60z"/>
<path d="M4750 4316 c0 -90 3 -171 6 -180 5 -12 20 -16 60 -16 l53 0 3 58 3
57 58 3 57 3 0 59 0 60 -60 0 -60 0 0 60 0 60 -60 0 -60 0 0 -164z"/>
<path d="M5350 4060 l0 -60 60 0 60 0 0 60 0 60 -60 0 -60 0 0 -60z"/>
<path d="M5830 3940 l0 -60 60 0 61 0 -3 58 -3 57 -57 3 -58 3 0 -61z"/>
<path d="M1180 3345 l0 -55 60 0 60 0 0 55 0 55 -60 0 -60 0 0 -55z"/>
<path d="M5470 3345 l0 -55 60 0 60 0 0 55 0 55 -60 0 -60 0 0 -55z"/>
<path d="M3330 1200 l0 -60 55 0 55 0 0 60 0 60 -55 0 -55 0 0 -60z"/>
<path d="M5470 1200 l0 -60 60 0 60 0 0 60 0 60 -60 0 -60 0 0 -60z"/>
<path d="M5470 5845 l0 -415 415 0 415 0 0 415 0 415 -415 0 -415 0 0 -415z
m710 0 l0 -295 -295 0 -295 0 0 295 0 295 295 0 295 0 0 -295z"/>
<path d="M5717 6024 c-4 -4 -7 -85 -7 -181 l0 -173 180 0 180 0 -2 178 -3 177
-171 3 c-93 1 -173 -1 -177 -4z"/>
<path d="M4877 5663 c-4 -3 -7 -30 -7 -60 l0 -53 -54 0 c-34 0 -56 -5 -59 -12
-7 -21 -9 -192 -1 -211 5 -15 25 -17 180 -17 l174 0 0 180 0 180 -113 0 c-63
0 -117 -3 -120 -7z m113 -173 l0 -61 -57 3 -58 3 -3 58 -3 57 61 0 60 0 0 -60z"/>
<path d="M4520 5490 l0 -61 58 3 57 3 0 55 0 55 -57 3 -58 3 0 -61z"/>
<path d="M5230 5490 l0 -60 60 0 60 0 0 60 0 60 -60 0 -60 0 0 -60z"/>
<path d="M470 5250 l0 -61 58 3 57 3 0 55 0 55 -57 3 -58 3 0 -61z"/>
<path d="M6070 4595 l0 -115 55 0 55 0 0 115 0 115 -55 0 -55 0 0 -115z"/>
<path d="M5710 2630 l0 -60 60 0 61 0 -3 -57 -3 -58 -117 -3 -118 -3 0 -233 0
-234 50 -4 c28 -1 55 -1 60 0 6 2 10 71 10 178 l0 173 118 3 117 3 3 118 3
117 -61 0 -60 0 0 60 0 60 -60 0 -60 0 0 -60z"/>
<path d="M5232 2153 l3 -58 55 0 55 0 3 58 3 57 -61 0 -61 0 3 -57z"/>
<path d="M470 1861 l0 -120 58 -3 57 -3 3 -117 3 -118 -61 0 -60 0 0 -60 0
-60 175 0 174 0 3 58 3 57 58 3 57 3 0 59 0 60 -120 0 -120 0 0 120 0 120 -55
0 -54 0 -3 58 -3 57 -57 3 -58 3 0 -120z"/>
<path d="M470 845 l0 -415 415 0 415 0 0 415 0 415 -415 0 -415 0 0 -415z
m710 0 l0 -295 -295 0 -295 0 0 295 0 295 295 0 295 0 0 -295z"/>
<path d="M704 1007 c-2 -7 -3 -87 -2 -177 l3 -165 178 -3 177 -2 0 180 0 180
-175 0 c-134 0 -177 -3 -181 -13z"/>
<path d="M6070 1140 l0 -120 115 0 115 0 0 120 0 120 -115 0 -115 0 0 -120z"/>
<path d="M6180 840 l0 -60 -55 0 -55 0 0 -60 0 -60 -60 0 -60 0 0 -55 0 -55
-120 0 -120 0 0 -60 0 -60 120 0 120 0 0 60 0 60 60 0 60 0 0 -60 0 -60 115 0
115 0 0 60 0 60 -115 0 -115 0 0 55 0 55 115 0 115 0 0 120 0 120 -60 0 -60 0
0 -60z"/>
<path d="M3210 605 l0 -55 60 0 60 0 0 55 0 55 -60 0 -60 0 0 -55z"/>
<path d="M2377 543 c-4 -3 -7 -30 -7 -60 l0 -53 60 0 60 0 0 60 0 60 -53 0
c-30 0 -57 -3 -60 -7z"/>
</g>
</svg>
